<svg width="339" height="50" viewBox="0 0 339 50" fill="none" xmlns="http://www.w3.org/2000/svg">
<rect width="339" height="50" rx="3" fill="#F43E74"/>
<path d="M17.4792 22.08C17.0719 22.0713 16.7252 22.0063 16.4392 21.885C16.1532 21.7723 15.9235 21.6207 15.7502 21.43C15.5769 21.2393 15.4512 21.0183 15.3732 20.767C15.2952 20.5157 15.2562 20.2427 15.2562 19.948C15.2562 19.6533 15.2909 19.3803 15.3602 19.129C15.4295 18.869 15.5465 18.6437 15.7112 18.453C15.8845 18.2623 16.1142 18.1107 16.4002 17.998C16.6949 17.8853 17.0632 17.8247 17.5052 17.816H23.0692C23.5112 17.816 23.8752 17.8723 24.1612 17.985C24.4559 18.0977 24.6855 18.2537 24.8502 18.453C25.0235 18.6437 25.1449 18.869 25.2142 19.129C25.2835 19.3803 25.3182 19.6533 25.3182 19.948C25.3182 20.2427 25.2792 20.5157 25.2012 20.767C25.1232 21.0183 24.9932 21.2393 24.8112 21.43C24.6379 21.6207 24.4082 21.7723 24.1222 21.885C23.8449 22.0063 23.5025 22.0713 23.0952 22.08H17.4792ZM22.5102 20.494C22.7615 20.4767 22.9435 20.4377 23.0562 20.377C23.1689 20.3163 23.2252 20.1733 23.2252 19.948C23.2252 19.7227 23.1689 19.5797 23.0562 19.519C22.9435 19.4583 22.7615 19.4193 22.5102 19.402H18.0642C17.8129 19.4193 17.6309 19.4583 17.5182 19.519C17.4055 19.5797 17.3492 19.7227 17.3492 19.948C17.3492 20.1733 17.4055 20.3163 17.5182 20.377C17.6309 20.4377 17.8129 20.4767 18.0642 20.494H22.5102ZM15.9972 17.114C15.7545 17.114 15.5552 17.0923 15.3992 17.049C15.2432 16.997 15.1219 16.932 15.0352 16.854C14.9485 16.776 14.8879 16.6893 14.8532 16.594C14.8272 16.49 14.8142 16.386 14.8142 16.282C14.8142 16.152 14.8272 16.035 14.8532 15.931C14.8879 15.827 14.9485 15.7403 15.0352 15.671C15.1219 15.593 15.2432 15.5323 15.3992 15.489C15.5552 15.4457 15.7545 15.424 15.9972 15.424H16.3222V14.319C16.3222 13.8857 16.4262 13.591 16.6342 13.435C16.8509 13.2703 17.0979 13.188 17.3752 13.188C17.5139 13.188 17.6439 13.2053 17.7652 13.24C17.8952 13.2747 18.0079 13.3353 18.1032 13.422C18.1985 13.5087 18.2765 13.6257 18.3372 13.773C18.3979 13.9203 18.4282 14.1023 18.4282 14.319V15.424H21.1192C21.3619 15.424 21.5612 15.4457 21.7172 15.489C21.8732 15.5323 21.9945 15.593 22.0812 15.671C22.1679 15.7403 22.2242 15.827 22.2502 15.931C22.2849 16.035 22.3022 16.152 22.3022 16.282C22.3022 16.386 22.2849 16.49 22.2502 16.594C22.2242 16.6893 22.1679 16.776 22.0812 16.854C21.9945 16.932 21.8732 16.997 21.7172 17.049C21.5612 17.0923 21.3619 17.114 21.1192 17.114H15.9972ZM20.2482 14.839C19.9015 14.7957 19.6632 14.696 19.5332 14.54C19.4032 14.3753 19.3469 14.1587 19.3642 13.89C19.3729 13.7253 19.3859 13.5477 19.4032 13.357C19.4292 13.1663 19.4422 12.9843 19.4422 12.811V12.59H16.1922C15.9495 12.59 15.7502 12.5727 15.5942 12.538C15.4382 12.4947 15.3169 12.4383 15.2302 12.369C15.1435 12.291 15.0829 12.2 15.0482 12.096C15.0222 11.992 15.0092 11.875 15.0092 11.745C15.0092 11.641 15.0222 11.5413 15.0482 11.446C15.0829 11.342 15.1435 11.251 15.2302 11.173C15.3169 11.095 15.4382 11.0343 15.5942 10.991C15.7502 10.9477 15.9495 10.926 16.1922 10.926H20.5992C20.8332 10.926 21.0152 10.952 21.1452 11.004C21.2752 11.0473 21.3749 11.1123 21.4442 11.199C21.5135 11.277 21.5569 11.3767 21.5742 11.498C21.5915 11.6193 21.6002 11.758 21.6002 11.914V12.174C21.6002 12.278 21.5959 12.408 21.5872 12.564C21.5785 12.7113 21.5655 12.8717 21.5482 13.045C21.5395 13.2097 21.5222 13.3787 21.4962 13.552C21.4789 13.7253 21.4572 13.89 21.4312 14.046C21.3792 14.3233 21.2622 14.5357 21.0802 14.683C20.8982 14.8303 20.6209 14.8823 20.2482 14.839ZM23.9792 17.335C23.8405 17.335 23.7062 17.3177 23.5762 17.283C23.4549 17.2483 23.3422 17.1877 23.2382 17.101C23.1429 17.0143 23.0649 16.8973 23.0042 16.75C22.9522 16.6027 22.9262 16.4163 22.9262 16.191V11.901C22.9262 11.4677 23.0302 11.173 23.2382 11.017C23.4549 10.8523 23.7019 10.77 23.9792 10.77C24.1179 10.77 24.2479 10.7873 24.3692 10.822C24.4992 10.8567 24.6119 10.9173 24.7072 11.004C24.8025 11.0907 24.8805 11.2077 24.9412 11.355C25.0019 11.5023 25.0322 11.6843 25.0322 11.901V13.175H25.6952C25.9379 13.175 26.1372 13.2053 26.2932 13.266C26.4492 13.318 26.5705 13.3873 26.6572 13.474C26.7439 13.5607 26.8002 13.6603 26.8262 13.773C26.8609 13.877 26.8782 13.981 26.8782 14.085C26.8782 14.215 26.8609 14.3363 26.8262 14.449C26.8002 14.5617 26.7439 14.6613 26.6572 14.748C26.5705 14.826 26.4492 14.891 26.2932 14.943C26.1372 14.995 25.9379 15.021 25.6952 15.021H25.0322V16.191C25.0322 16.4163 25.0019 16.6027 24.9412 16.75C24.8805 16.8973 24.8025 17.0143 24.7072 17.101C24.6119 17.1877 24.4992 17.2483 24.3692 17.283C24.2479 17.3177 24.1179 17.335 23.9792 17.335ZM27.8497 21.768C27.6071 21.768 27.4077 21.742 27.2517 21.69C27.0957 21.638 26.9744 21.5687 26.8877 21.482C26.8011 21.404 26.7404 21.3087 26.7057 21.196C26.6797 21.092 26.6667 20.988 26.6667 20.884C26.6667 20.754 26.6797 20.6327 26.7057 20.52C26.7404 20.416 26.8011 20.3207 26.8877 20.234C26.9744 20.156 27.0957 20.091 27.2517 20.039C27.4077 19.9957 27.6071 19.974 27.8497 19.974H30.0467V16.984C30.0467 16.5507 30.1507 16.256 30.3587 16.1C30.5754 15.9353 30.8224 15.853 31.0997 15.853C31.2384 15.853 31.3684 15.8703 31.4897 15.905C31.6197 15.9397 31.7324 16.0003 31.8277 16.087C31.9231 16.1737 32.0011 16.2907 32.0617 16.438C32.1224 16.5853 32.1527 16.7673 32.1527 16.984V19.974H36.8847C37.1274 19.974 37.3267 19.9957 37.4827 20.039C37.6387 20.091 37.7601 20.156 37.8467 20.234C37.9334 20.3207 37.9897 20.416 38.0157 20.52C38.0504 20.6327 38.0677 20.754 38.0677 20.884C38.0677 20.988 38.0504 21.092 38.0157 21.196C37.9897 21.3087 37.9334 21.404 37.8467 21.482C37.7601 21.5687 37.6387 21.638 37.4827 21.69C37.3267 21.742 37.1274 21.768 36.8847 21.768H27.8497ZM35.0387 17.712C34.8307 17.6167 34.6747 17.4823 34.5707 17.309C34.4754 17.127 34.4711 16.906 34.5577 16.646C34.6444 16.3513 34.7137 16.0783 34.7657 15.827C34.8177 15.5757 34.8524 15.333 34.8697 15.099C34.8871 14.865 34.8957 14.6267 34.8957 14.384C34.9044 14.1413 34.9087 13.877 34.9087 13.591V12.85H28.7207C28.4781 12.85 28.2787 12.8283 28.1227 12.785C27.9667 12.733 27.8454 12.668 27.7587 12.59C27.6721 12.5033 27.6114 12.408 27.5767 12.304C27.5507 12.1913 27.5377 12.07 27.5377 11.94C27.5377 11.836 27.5507 11.732 27.5767 11.628C27.6114 11.5153 27.6721 11.42 27.7587 11.342C27.8454 11.2553 27.9667 11.186 28.1227 11.134C28.2787 11.082 28.4781 11.056 28.7207 11.056H36.0657C36.2997 11.056 36.4817 11.082 36.6117 11.134C36.7417 11.1773 36.8414 11.2423 36.9107 11.329C36.9801 11.407 37.0234 11.5067 37.0407 11.628C37.0581 11.7493 37.0667 11.888 37.0667 12.044V13.474C37.0667 13.89 37.0581 14.293 37.0407 14.683C37.0321 15.0643 37.0017 15.424 36.9497 15.762C36.9064 16.0913 36.8371 16.399 36.7417 16.685C36.6551 16.971 36.5294 17.2223 36.3647 17.439C36.2781 17.5603 36.1784 17.6513 36.0657 17.712C35.9531 17.764 35.8361 17.7987 35.7147 17.816C35.5934 17.8333 35.4721 17.8333 35.3507 17.816C35.2381 17.79 35.1341 17.7553 35.0387 17.712ZM43.1517 21.599C42.9091 21.599 42.7184 21.573 42.5797 21.521C42.4411 21.4777 42.3327 21.4127 42.2547 21.326C42.1854 21.248 42.1421 21.1527 42.1247 21.04C42.1074 20.936 42.0987 20.819 42.0987 20.689V12.031C42.0987 11.5977 42.1941 11.303 42.3847 11.147C42.5754 10.9823 42.8094 10.9 43.0867 10.9C43.2254 10.9 43.3554 10.9173 43.4767 10.952C43.6067 10.9867 43.7194 11.0473 43.8147 11.134C43.9101 11.2207 43.9881 11.3377 44.0487 11.485C44.1094 11.6323 44.1397 11.8143 44.1397 12.031V14.54H45.1277V12.031C45.1277 11.5977 45.2317 11.303 45.4397 11.147C45.6564 10.9823 45.9034 10.9 46.1807 10.9C46.3194 10.9 46.4451 10.9173 46.5577 10.952C46.6791 10.9867 46.7831 11.0473 46.8697 11.134C46.9651 11.2207 47.0387 11.3377 47.0907 11.485C47.1427 11.6323 47.1687 11.8143 47.1687 12.031V20.689C47.1687 20.819 47.1601 20.936 47.1427 21.04C47.1254 21.1527 47.0777 21.248 46.9997 21.326C46.9304 21.4127 46.8264 21.4777 46.6877 21.521C46.5491 21.573 46.3584 21.599 46.1157 21.599H43.1517ZM45.1277 19.805V16.334H44.1397V19.805H45.1277ZM49.0147 21.924C48.8934 21.924 48.7764 21.9067 48.6637 21.872C48.5511 21.8373 48.4514 21.7767 48.3647 21.69C48.2867 21.6033 48.2217 21.4863 48.1697 21.339C48.1177 21.1917 48.0917 21.0053 48.0917 20.78V11.901C48.0917 11.4677 48.1827 11.173 48.3647 11.017C48.5554 10.8523 48.7721 10.77 49.0147 10.77C49.2487 10.77 49.4567 10.8523 49.6387 11.017C49.8294 11.173 49.9247 11.4677 49.9247 11.901V14.631H50.8867V11.901C50.8867 11.4677 50.9777 11.173 51.1597 11.017C51.3504 10.8523 51.5671 10.77 51.8097 10.77C52.0437 10.77 52.2517 10.8523 52.4337 11.017C52.6244 11.173 52.7197 11.4677 52.7197 11.901V20.78C52.7197 21.0053 52.6937 21.1917 52.6417 21.339C52.5897 21.4863 52.5204 21.6033 52.4337 21.69C52.3557 21.7767 52.2604 21.8373 52.1477 21.872C52.0351 21.9067 51.9224 21.924 51.8097 21.924C51.6884 21.924 51.5714 21.9067 51.4587 21.872C51.3461 21.8373 51.2464 21.7767 51.1597 21.69C51.0817 21.6033 51.0167 21.4863 50.9647 21.339C50.9127 21.1917 50.8867 21.0053 50.8867 20.78V16.425H49.9247V20.78C49.9247 21.0053 49.8987 21.1917 49.8467 21.339C49.7947 21.4863 49.7254 21.6033 49.6387 21.69C49.5607 21.7767 49.4654 21.8373 49.3527 21.872C49.2401 21.9067 49.1274 21.924 49.0147 21.924ZM63.3373 21.924C63.1986 21.924 63.0643 21.9067 62.9343 21.872C62.8129 21.8373 62.7003 21.7767 62.5963 21.69C62.5009 21.6033 62.4229 21.4863 62.3623 21.339C62.3103 21.1917 62.2843 21.0053 62.2843 20.78V16.529H59.8013C59.5586 16.529 59.3636 16.5073 59.2163 16.464C59.0689 16.412 58.9519 16.347 58.8653 16.269C58.7873 16.1823 58.7353 16.087 58.7093 15.983C58.6833 15.8703 58.6703 15.749 58.6703 15.619C58.6703 15.515 58.6833 15.411 58.7093 15.307C58.7353 15.1943 58.7873 15.099 58.8653 15.021C58.9519 14.9343 59.0689 14.865 59.2163 14.813C59.3636 14.761 59.5586 14.735 59.8013 14.735H62.2843V11.901C62.2843 11.4677 62.3883 11.173 62.5963 11.017C62.8129 10.8523 63.0599 10.77 63.3373 10.77C63.4759 10.77 63.6059 10.7873 63.7273 10.822C63.8573 10.8567 63.9699 10.9173 64.0653 11.004C64.1606 11.0907 64.2386 11.2077 64.2993 11.355C64.3599 11.5023 64.3903 11.6843 64.3903 11.901V20.78C64.3903 21.0053 64.3599 21.1917 64.2993 21.339C64.2386 21.4863 64.1606 21.6033 64.0653 21.69C63.9699 21.7767 63.8573 21.8373 63.7273 21.872C63.6059 21.9067 63.4759 21.924 63.3373 21.924ZM55.5113 21.599C55.2686 21.599 55.0779 21.573 54.9393 21.521C54.8006 21.4777 54.6923 21.4127 54.6143 21.326C54.5449 21.248 54.5016 21.1527 54.4843 21.04C54.4669 20.936 54.4583 20.819 54.4583 20.689V12.031C54.4583 11.5977 54.5623 11.303 54.7703 11.147C54.9869 10.9823 55.2339 10.9 55.5113 10.9C55.6499 10.9 55.7799 10.9173 55.9013 10.952C56.0313 10.9867 56.1439 11.0473 56.2393 11.134C56.3346 11.2207 56.4126 11.3377 56.4733 11.485C56.5339 11.6323 56.5643 11.8143 56.5643 12.031V19.805H58.8523C59.0949 19.805 59.2943 19.831 59.4503 19.883C59.6063 19.935 59.7276 20 59.8143 20.078C59.9009 20.1647 59.9573 20.26 59.9833 20.364C60.0179 20.4767 60.0353 20.585 60.0353 20.689C60.0353 20.819 60.0179 20.936 59.9833 21.04C59.9573 21.1527 59.9009 21.248 59.8143 21.326C59.7276 21.4127 59.6063 21.4777 59.4503 21.521C59.2943 21.573 59.0949 21.599 58.8523 21.599H55.5113Z" fill="black"/>
</svg>
