<svg width="26" height="26" viewBox="0 0 26 26" fill="none" xmlns="http://www.w3.org/2000/svg">
<path d="M16.6279 26H9.37209C2.80558 26 0 23.1944 0 16.6279V9.37209C0 2.80558 2.80558 0 9.37209 0H16.6279C23.1944 0 26 2.80558 26 9.37209V16.6279C26 23.1944 23.1944 26 16.6279 26ZM9.37209 1.81395C3.79721 1.81395 1.81395 3.79721 1.81395 9.37209V16.6279C1.81395 22.2028 3.79721 24.186 9.37209 24.186H16.6279C22.2028 24.186 24.186 22.2028 24.186 16.6279V9.37209C24.186 3.79721 22.2028 1.81395 16.6279 1.81395H9.37209Z" fill="#292D32"/>
<path d="M14.5236 18.176C14.2938 18.176 14.0641 18.0914 13.8827 17.91L9.61385 13.6412C9.26316 13.2905 9.26316 12.71 9.61385 12.3593L13.8827 8.09042C14.2334 7.73972 14.8138 7.73972 15.1645 8.09042C15.5152 8.44111 15.5152 9.02158 15.1645 9.37228L11.5366 13.0002L15.1645 16.6281C15.5152 16.9788 15.5152 17.5593 15.1645 17.91C14.9952 18.0914 14.7655 18.176 14.5236 18.176Z" fill="#292D32"/>
</svg>
