<svg width="52" height="52" viewBox="0 0 52 52" fill="none" xmlns="http://www.w3.org/2000/svg">
<path d="M10.8333 17.3333C6.49998 17.3333 4.33331 19.5 4.33331 23.8333V41.1667C4.33331 45.5 6.49998 47.6667 10.8333 47.6667H28.1666C23.8333 47.6667 21.6666 45.5 21.6666 41.1667V17.3333M10.8333 17.3333H21.6666M10.8333 17.3333V13C10.8333 10.6167 12.7833 8.66666 15.1666 8.66666H21.905C21.7316 9.31666 21.6666 10.0317 21.6666 10.8333V17.3333M30.3333 17.3333V28.1667M39 17.3333V28.1667M13 28.1667V36.8333M36.8333 36.8333H32.5C31.3083 36.8333 30.3333 37.8083 30.3333 39V47.6667H39V39C39 37.8083 38.025 36.8333 36.8333 36.8333Z" stroke="#629F3C" stroke-width="1.5" stroke-miterlimit="10" stroke-linecap="round" stroke-linejoin="round"/>
<path d="M21.6667 41.1667V10.8333C21.6667 6.50001 23.8334 4.33334 28.1667 4.33334H41.1667C45.5 4.33334 47.6667 6.50001 47.6667 10.8333V41.1667C47.6667 45.5 45.5 47.6667 41.1667 47.6667H28.1667C23.8334 47.6667 21.6667 45.5 21.6667 41.1667Z" stroke="#629F3C" stroke-width="1.5" stroke-miterlimit="10" stroke-linecap="round" stroke-linejoin="round"/>
</svg>
