<svg width="52" height="52" viewBox="0 0 52 52" fill="none" xmlns="http://www.w3.org/2000/svg">
<path d="M22.75 17.3333H29.25M14.6467 47.6667H37.3534C43.3334 47.6667 45.7167 44.005 45.9984 39.5417L47.125 21.645C47.1952 20.5353 47.0371 19.423 46.6604 18.3768C46.2838 17.3307 45.6965 16.3729 44.935 15.5626C44.1735 14.7524 43.254 14.1069 42.2331 13.6662C41.2123 13.2254 40.1119 12.9987 39 13C37.6784 13 36.465 12.2417 35.8584 11.0717L34.2984 7.93001C33.3017 5.95834 30.7017 4.33334 28.4917 4.33334H23.53C21.2984 4.33334 18.6984 5.95834 17.7017 7.93001L16.1417 11.0717C15.535 12.2417 14.3217 13 13 13C8.29835 13 4.57168 16.965 4.87502 21.645L6.00168 39.5417C6.26168 44.005 8.66668 47.6667 14.6467 47.6667Z" stroke="#F7A79C" stroke-width="1.5" stroke-linecap="round" stroke-linejoin="round"/>
<path d="M26 39C29.8783 39 33.0416 35.8367 33.0416 31.9583C33.0416 28.08 29.8783 24.9167 26 24.9167C22.1216 24.9167 18.9583 28.08 18.9583 31.9583C18.9583 35.8367 22.1216 39 26 39Z" stroke="#F7A79C" stroke-width="1.5" stroke-linecap="round" stroke-linejoin="round"/>
</svg>
