<svg width="47" height="43" viewBox="0 0 47 43" fill="none" xmlns="http://www.w3.org/2000/svg">
<path d="M5 40H31" stroke="black" stroke-width="6"/>
<path d="M8 43L8 8" stroke="black" stroke-width="6"/>
<path d="M7.13397 1.5C7.51887 0.833334 8.48113 0.833333 8.86603 1.5L15.7942 13.5C16.1791 14.1667 15.698 15 14.9282 15H1.0718C0.301997 15 -0.179129 14.1667 0.205771 13.5L7.13397 1.5Z" fill="black"/>
<path d="M42 3L16 3" stroke="black" stroke-width="6"/>
<path d="M39 0L39 35" stroke="black" stroke-width="6"/>
<path d="M39.866 41.5C39.4811 42.1667 38.5189 42.1667 38.134 41.5L31.2058 29.5C30.8209 28.8333 31.302 28 32.0718 28L45.9282 28C46.698 28 47.1791 28.8333 46.7942 29.5L39.866 41.5Z" fill="black"/>
</svg>
